<?xml version="1.0" standalone="no"?>
<!DOCTYPE svg PUBLIC "-//W3C//DTD SVG 20010904//EN"
 "http://www.w3.org/TR/2001/REC-SVG-20010904/DTD/svg10.dtd">
<svg version="1.0" xmlns="http://www.w3.org/2000/svg"
 width="700.000000pt" height="700.000000pt" viewBox="0 0 700.000000 700.000000"
 preserveAspectRatio="xMidYMid meet">
<metadata>
Created by potrace 1.11, written by Peter Selinger 2001-2013
</metadata>
<g transform="translate(0.000000,700.000000) scale(0.100000,-0.100000)"
fill="#000000" stroke="none">
<path d="M3015 6795 l0 -204 140 -3 140 -3 1 -310 c0 -170 -2 -315 -4 -322 -2
-6 -11 -11 -20 -11 -28 2 -142 -12 -186 -22 -23 -5 -57 -12 -76 -15 -126 -22
-327 -85 -486 -153 l-71 -30 -82 143 c-44 78 -81 146 -81 151 0 5 41 32 90 59
49 28 90 54 90 59 0 8 -39 81 -90 167 -8 14 -34 60 -58 102 -24 43 -47 77 -52
77 -8 0 -191 -102 -215 -120 -5 -4 -32 -20 -60 -35 -154 -85 -465 -268 -464
-273 0 -4 8 -19 17 -34 20 -31 114 -194 151 -260 14 -27 31 -48 38 -48 7 0 51
23 98 51 70 41 89 48 101 39 8 -7 14 -16 14 -20 0 -4 31 -61 69 -127 39 -66
71 -124 73 -130 2 -5 -29 -34 -69 -64 -181 -137 -382 -339 -493 -497 l-43 -61
-46 26 c-25 15 -64 36 -86 49 -109 61 -411 237 -418 244 -5 4 21 59 57 121 37
62 65 118 62 124 -2 7 -28 24 -58 40 -29 15 -65 36 -80 46 -14 11 -28 19 -31
19 -2 0 -42 22 -88 50 -46 27 -86 46 -90 42 -4 -4 -57 -95 -119 -202 -61 -107
-129 -224 -150 -260 -21 -36 -49 -83 -62 -106 -13 -23 -52 -91 -87 -153 -35
-62 -62 -113 -60 -115 13 -9 219 -126 223 -126 2 0 30 -16 62 -35 66 -40 72
-41 82 -17 4 9 33 63 65 118 l58 102 278 -161 279 -160 -35 -81 c-93 -217
-139 -395 -189 -731 l-4 -30 -170 0 -170 0 0 113 0 112 -205 0 -205 0 0 -430
0 -430 205 0 205 0 0 113 0 112 170 0 169 0 5 -25 c3 -14 8 -50 12 -80 3 -30
8 -62 9 -71 2 -9 6 -34 9 -55 22 -139 96 -386 160 -531 19 -43 34 -78 33 -79
-10 -8 -511 -294 -515 -294 -3 0 -13 -7 -23 -16 -17 -15 -19 -14 -36 19 -42
82 -117 207 -125 207 -5 0 -25 -10 -46 -23 -20 -13 -44 -27 -52 -31 -8 -4 -24
-12 -35 -19 -11 -7 -62 -36 -112 -65 -100 -57 -110 -66 -95 -85 5 -7 19 -28
29 -47 58 -102 436 -756 442 -762 7 -7 344 186 349 200 2 6 -8 29 -22 51 -14
22 -26 42 -26 45 0 2 -18 34 -41 71 -22 37 -37 71 -32 75 4 5 62 40 128 78
324 187 382 220 401 230 19 10 25 7 47 -27 89 -134 325 -379 474 -492 32 -24
70 -53 85 -65 l27 -22 -81 -138 c-44 -77 -84 -143 -88 -147 -6 -7 -54 17 -166
85 l-32 18 -33 -57 c-18 -32 -38 -67 -44 -78 -6 -11 -37 -64 -68 -119 -66
-114 -73 -96 68 -176 50 -28 108 -61 130 -74 22 -13 112 -65 200 -116 88 -51
180 -104 205 -118 25 -14 53 -30 62 -36 9 -6 19 -8 21 -6 7 8 87 142 87 145 0
2 27 49 59 104 l60 100 -57 33 c-31 18 -66 38 -77 45 -11 7 -30 17 -42 22 -21
10 -19 14 65 160 l86 150 35 -16 c197 -85 435 -159 576 -179 22 -3 49 -7 60
-9 11 -1 45 -6 75 -10 30 -4 62 -9 70 -11 8 -1 17 -3 20 -3 4 -1 5 -608 1
-633 0 -5 -63 -8 -139 -8 l-137 0 0 -205 0 -205 487 0 486 0 1 205 0 205 -139
0 c-105 0 -140 3 -140 13 -4 95 -1 617 3 624 3 5 23 10 44 11 164 10 447 80
652 162 68 28 127 50 131 50 8 0 27 -30 72 -110 11 -19 38 -65 59 -102 22 -36
39 -69 39 -72 0 -3 -43 -30 -96 -61 -92 -54 -95 -57 -81 -78 8 -12 51 -87 97
-167 45 -80 87 -150 92 -156 6 -9 37 5 106 45 53 32 216 127 362 211 146 83
269 156 273 160 5 4 -20 56 -54 116 -34 60 -77 136 -96 169 -19 33 -38 63 -41
67 -4 4 -47 -15 -94 -42 -48 -27 -92 -51 -97 -52 -6 -2 -48 62 -94 142 l-84
144 66 50 c183 137 366 320 498 497 l49 67 277 -160 277 -160 -23 -42 c-57
-99 -71 -123 -93 -161 l-23 -40 177 -102 c135 -78 180 -99 188 -90 15 17 474
815 474 824 0 9 -334 203 -349 203 -5 0 -34 -44 -64 -97 -31 -54 -62 -106 -69
-116 -13 -17 -31 -9 -273 131 -143 82 -267 153 -277 158 -15 8 -15 12 3 49 32
65 105 273 132 375 34 129 50 213 67 343 4 38 11 71 13 74 4 4 234 7 315 4 21
-1 22 -4 22 -111 l0 -110 205 0 205 0 0 430 0 430 -205 0 -205 0 0 -110 c0
-66 -4 -110 -10 -111 -13 -1 -202 -1 -281 0 -33 1 -58 4 -56 9 7 11 -19 195
-43 306 -27 125 -80 292 -133 419 -23 57 -36 102 -31 107 10 9 511 299 530
307 11 4 46 -48 102 -148 34 -61 46 -79 55 -79 13 0 347 194 347 202 0 4 -75
137 -166 295 -92 158 -175 302 -184 318 -9 17 -41 72 -70 123 -29 51 -56 94
-59 97 -5 3 -344 -185 -357 -198 -2 -2 22 -45 52 -97 31 -52 62 -107 70 -122
l14 -26 -158 -90 c-86 -50 -211 -122 -276 -160 l-120 -69 -45 61 c-24 33 -49
66 -55 72 -6 6 -31 36 -56 65 -97 117 -256 265 -391 366 l-66 49 79 139 c44
77 83 143 87 147 3 4 49 -17 101 -47 52 -29 98 -51 101 -47 25 27 199 346 192
353 -4 4 -172 103 -373 219 -322 186 -365 208 -374 193 -5 -10 -50 -88 -99
-173 -48 -85 -89 -158 -90 -163 -2 -8 43 -38 125 -82 26 -13 49 -29 53 -34 3
-6 -32 -75 -77 -154 l-83 -143 -86 37 c-206 89 -498 165 -696 182 -24 2 -46 6
-49 10 -5 5 -8 396 -5 595 l1 42 140 0 140 0 -2 205 -1 205 -486 0 -486 0 0
-205z"/>
</g>
</svg>
